<svg viewBox="0 0 256 256" xmlns="http://www.w3.org/2000/svg" fill-rule="evenodd" clip-rule="evenodd" stroke-linejoin="round" stroke-miterlimit="2"><defs><linearGradient id="a" gradientTransform="rotate(35)"><stop class="primary-gradient-start" offset="0%"/><stop class="primary-gradient-end" offset="100%"/></linearGradient></defs><path fill="url(#a)" d="M44.389 56.68l34.107 34.105c-2.353 15.512 2.445 31.902 14.383 43.838l39.493 39.496c-.1.1-.193.202-.294.301-8.29 8.293-21.764 8.293-30.054 0a4.594 4.594 0 00-6.498 0l-14.622 14.62a4.6 4.6 0 000 6.499c19.953 19.948 52.342 19.948 72.295 0 .092-.1.193-.2.294-.3l35.192 35.19a71.794 71.794 0 00-4.688 25.575H64.002c-35.32 0-64.005-28.677-64.005-64v-120c16.746 0 32.159-5.726 44.392-15.323zm154.838 155.057a72.453 72.453 0 00-6.443 9.796l-33.427-33.432a51.043 51.043 0 005.542-10.699l34.328 34.335zM63.634 33.692c5.34-10.053 8.364-21.52 8.364-33.688h120.005c35.32 0 63.995 28.678 63.995 64v120c-19.742 0-37.636 7.962-50.65 20.851l-37.775-37.767c2.353-15.514-2.444-31.903-14.374-43.838l-39.502-39.497c.1-.1.202-.201.294-.301 8.3-8.292 21.764-8.292 30.054 0a4.594 4.594 0 006.498 0l14.622-14.62a4.6 4.6 0 000-6.499c-19.953-19.949-52.341-19.949-72.286 0l-.303.3-28.942-28.941zm75.236 146.926c-.092.1-.193.2-.294.3-10.771 10.775-27.646 11.778-39.557 3.005l-8.19 8.188c16.462 13.217 40.606 12.193 55.863-3.071l.303-.3-8.125-8.122zm-33.427-62.88L87.144 99.44h-.027c.239 10.412 4.32 20.748 12.26 28.683l37.876 37.875c2.141-6.596.983-14.039-3.484-19.722l-26.276-26.274a32.442 32.442 0 01-2.05-2.264zm3.373-25.864c-2.141 6.596-.983 14.04 3.484 19.722l26.276 26.274a30.292 30.292 0 012.05 2.264l18.336 18.332c-.23-10.42-4.32-20.772-12.27-28.717l-37.876-37.875zm-50.145-50.15l28.05 28.046a51.082 51.082 0 00-5.55 10.7L51.253 50.55a71.952 71.952 0 007.417-8.826zm48.528 35.53c.1-.1.193-.2.294-.301 10.78-10.774 27.646-11.776 39.557-3.004l8.19-8.188c-16.452-13.217-40.597-12.193-55.863 3.071l-.303.3 8.125 8.122z"/></svg>