<svg viewBox="0 0 280 280" xmlns="http://www.w3.org/2000/svg"><defs><linearGradient id="a" gradientTransform="rotate(35)"><stop class="primary-gradient-start" offset="0%"/><stop class="primary-gradient-end" offset="100%"/></linearGradient></defs><path fill="url(#a)" d="M17.754 23.438l73.31 73.322c-2.82 18.66 2.95 38.37 17.31 52.73l47.51 47.51-.36.36c-9.98 9.98-26.17 9.98-36.15 0a5.529 5.529 0 00-7.82 0l-17.58 17.59c-2.16 2.16-2.16 5.66 0 7.81 24 24 62.96 24 86.96 0 .11-.12.23-.24.35-.36l53.19 53.2a69.952 69.952 0 01-24.47 4.4h-140c-38.64 0-70-31.37-70-70V70c0-17.87 6.71-34.189 17.75-46.562zm238.67 238.932a69.658 69.658 0 01-11.34 8.2l-56.75-56.75a61.25 61.25 0 006.67-12.87l61.42 61.42zM48.494 3.372A69.901 69.901 0 0170.004 0h140c38.63 0 70 31.366 70 70v140c0 16.85-5.97 32.32-15.91 44.41l-65.86-65.87c2.82-18.66-2.95-38.38-17.3-52.73l-47.51-47.51c.11-.12.23-.24.35-.36 9.98-9.98 26.17-9.98 36.15 0a5.547 5.547 0 007.82 0l17.58-17.59a5.529 5.529 0 000-7.82c-23.99-23.994-62.96-23.994-86.95 0l-.36.36-59.52-59.518zm115.21 201.448l-.36.36c-12.96 12.96-33.26 14.16-47.58 3.61l-9.85 9.85c19.79 15.9 48.84 14.67 67.2-3.69.12-.12.24-.24.35-.36l-9.76-9.77zm-40.21-75.64l-22.01-22.01h-.04c.28 12.52 5.2 24.95 14.74 34.5l45.56 45.56c2.59-7.93 1.19-16.89-4.18-23.72l-31.61-31.61c-.87-.87-1.69-1.78-2.46-2.72zm4.06-31.11c-2.59 7.93-1.19 16.88 4.18 23.72l31.61 31.6c.87.88 1.7 1.79 2.46 2.73l22.06 22.05c-.28-12.54-5.2-24.99-14.75-34.54l-45.56-45.56zM37.494 8.004l63.47 63.476a61.007 61.007 0 00-6.67 12.87l-68.56-68.562a69.816 69.816 0 0111.76-7.784zm88.11 72.476c.11-.12.23-.24.35-.36 12.96-12.96 33.26-14.17 47.58-3.62l9.85-9.85c-19.79-15.89-48.84-14.66-67.2 3.7-.12.12-.23.24-.35.36l9.77 9.77z"/></svg>