<svg viewBox="0 0 98 119" xmlns="http://www.w3.org/2000/svg"><path d="M91.73 15.614c-10.89-15.7-32.567-20.3-48.15-10.4l-27.472 17.6c-7.492 4.7-12.686 12.4-14.185 21.1-1.299 7.3-.2 14.8 3.297 21.3-2.398 3.6-3.996 7.6-4.695 11.8-1.599 8.9.5 18.1 5.694 25.4 10.988 15.7 32.566 20.3 48.15 10.4l27.47-17.5c7.493-4.7 12.687-12.4 14.186-21.1 1.298-7.3.2-14.8-3.297-21.3 2.398-3.6 3.996-7.6 4.695-11.8 1.699-9-.4-18.2-5.694-25.5zm-50.848 88.3a21.763 21.763 0 01-23.375-8.7c-3.197-4.4-4.396-9.9-3.496-15.3.2-.9.4-1.7.599-2.6l.5-1.6 1.398 1c3.296 2.4 6.893 4.2 10.789 5.4l.999.3-.1 1c-.1 1.4.3 2.9 1.099 4.1 1.598 2.3 4.395 3.4 7.092 2.7.6-.2 1.199-.4 1.698-.7l27.372-17.5c1.398-.9 2.297-2.2 2.597-3.8.3-1.6-.1-3.3-.999-4.6-1.598-2.3-4.395-3.3-7.093-2.6-.599.2-1.198.4-1.698.7l-10.489 6.7c-1.698 1.1-3.596 1.9-5.594 2.4a21.763 21.763 0 01-23.376-8.7c-3.096-4.4-4.395-9.9-3.396-15.3.9-5.2 4.096-9.9 8.591-12.7l27.471-17.5c1.699-1.1 3.597-1.9 5.595-2.5 8.89-2.3 18.18 1.2 23.375 8.7 3.197 4.4 4.395 9.9 3.496 15.3-.2.9-.4 1.7-.699 2.6l-.5 1.6-1.398-1a36.423 36.423 0 00-10.789-5.4l-.999-.3.1-1c.1-1.4-.3-2.9-1.098-4.1-1.599-2.3-4.396-3.3-7.093-2.6-.6.2-1.199.4-1.698.7l-27.372 17.5c-1.398.9-2.297 2.2-2.597 3.8-.3 1.6.1 3.3.999 4.6 1.598 2.3 4.395 3.3 7.093 2.6.599-.2 1.198-.4 1.698-.7l10.489-6.7c1.698-1.1 3.596-1.9 5.594-2.5 8.89-2.3 18.181 1.2 23.376 8.7 3.196 4.4 4.395 9.9 3.496 15.3-.9 5.2-4.096 9.9-8.591 12.7l-27.471 17.5c-1.699 1.1-3.597 1.9-5.595 2.5z"/></svg>