<svg version="1" xmlns="http://www.w3.org/2000/svg" width="373.333" height="373.333" viewBox="0 0 280.000000 280.000000"><path d="M60 .6c-4.7.8-11 2.7-11 3.3 0 .3 13.2 13.8 29.4 30l29.3 29.3 5.6-4.5c12-9.7 26.3-14.3 42.2-13.4 13 .8 23.7 4.8 34.4 13 6.1 4.7 7.4 7.1 5.6 10.7-2.2 4.2-19 20-21.4 20-1.1 0-4.3-1.6-6.9-3.5-9.5-6.8-21.2-6.9-30.2-.4l-4.2 3.1 27.4 27.6c25.1 25.2 27.8 28.4 31.2 35.2 5 10.3 6.6 16.9 6.6 28v9.5l33 33 33.1 33 2-2.5c3.9-4.9 8.8-14.6 11.1-22l2.3-7.5v-165l-2.3-7.5c-6.9-22.2-23-38.7-45.7-46.7l-8-2.8L143 .4C98.7.3 61.4.4 60 .6zM31.7 11.6c-3.1 1.9-5.7 3.9-5.7 4.2 0 1 67.9 68.7 68.3 68.2.2-.3 1.8-3.2 3.6-6.4l3.3-5.9-31.9-31.9L37.5 8l-5.8 3.6zM13.9 28.2c-5.1 7-10.7 19.7-12.4 28.3C.1 63.5 0 74.8.2 144l.3 79.5 2.8 8C8.1 245 15 255 25.7 264c7 5.9 13.2 9.3 22.8 12.7l8 2.8h83c76.7 0 83.4-.1 88.8-1.8 3.1-1 5.7-2.1 5.7-2.5 0-.4-11.8-12.5-26.3-27L181.5 222l-5.4 4.5c-11 9-24 13.5-38.9 13.5-15.2 0-29.9-5.5-40.3-15.1-6-5.5-5.5-6.9 6.5-18.7 5.7-5.6 10.9-10.2 11.6-10.2.7 0 3.9 1.8 7.2 3.9 10.6 7.1 22.2 6.8 31.8-.8l2.5-2-27.5-27.8c-30.2-30.4-32.3-33.2-36-47.9-1.2-4.7-2-11-2-16.3v-8.6L54.7 60.2C34.8 40.3 18.2 24 17.8 24c-.5 0-2.2 1.9-3.9 4.2z"/><path d="M145.5 55.7c-8.5 1.1-19.8 6.2-26 11.6l-4 3.5 4.9 5.1 4.9 5 3.8-3c7.2-5.7 12.4-7.4 22.9-7.4 8.7 0 10 .3 15.7 3.1l6.1 3.2 4.9-5 4.8-4.9-2.5-2.1c-4.5-3.7-14.4-7.6-22.4-8.7-4.2-.6-8.3-1-8.9-1-.7.1-2.5.4-4.2.6zM126.5 102.4c-1.8 11.9.2 14.8 33 47.6 23.8 23.8 28.5 28.1 28.5 25.9 0-4.9-3.8-17-7.1-22.3-1.9-3.3-13.3-15.5-28.5-30.7l-25.2-25.2-.7 4.7zM101.5 111.5c.9 6.7 2.2 10.9 5.8 18 2.4 4.9 7.8 10.9 28.5 31.7 17.4 17.6 25.8 25.4 26.4 24.5.4-.6.8-3.7.8-6.7 0-10.1-2-12.7-33.5-44l-28.6-28.5.6 5zM191.2 207.7l-3.3 6.7 27.9 27.9c31.1 31.1 29.1 29.8 36.7 23.3l4-3.5-30.5-30.5c-16.8-16.8-30.7-30.6-31-30.6-.3 0-2 3.1-3.8 6.7zM159 208.1c-9 7.6-25.7 9.2-37.3 3.5l-5.9-2.8-4.9 4.8-5 4.9 2.3 1.9c6.4 5.1 19.6 9.6 28.6 9.6 11.4 0 24.1-4.5 32.8-11.6l4.5-3.7-4.8-4.9c-2.6-2.6-5.2-4.8-5.8-4.8-.5.1-2.6 1.4-4.5 3.1z"/></svg>